M48
; DRILL file {KiCad 6.0.8+dfsg-1~bpo11+1} date Mon 31 Oct 2022 07:47:43 PM PDT
; FORMAT={-:-/ absolute / inch / decimal}
; #@! TF.CreationDate,2022-10-31T19:47:43-07:00
; #@! TF.GenerationSoftware,Kicad,Pcbnew,6.0.8+dfsg-1~bpo11+1
; #@! TF.FileFunction,Plated,1,2,PTH
FMAT,2
INCH
; #@! TA.AperFunction,Plated,PTH,ViaDrill
T1C0.0157
; #@! TA.AperFunction,Plated,PTH,ViaDrill
T2C0.0236
; #@! TA.AperFunction,Plated,PTH,ComponentDrill
T3C0.0315
; #@! TA.AperFunction,Plated,PTH,ComponentDrill
T4C0.0394
; #@! TA.AperFunction,Plated,PTH,ComponentDrill
T5C0.0433
%
G90
G05
T1
X1.0606Y-2.8
X1.085Y-5.185
X1.12Y-4.74
X1.14Y-3.58
X1.2Y-3.525
X1.2Y-3.625
X1.22Y-2.86
X1.2471Y-2.8965
X1.25Y-3.625
X1.2543Y-2.9585
X1.26Y-5.34
X1.2606Y-3.575
X1.27Y-4.82
X1.2748Y-2.9922
X1.275Y-2.925
X1.29Y-5.05
X1.2987Y-3.4487
X1.33Y-5.57
X1.4Y-2.6
X1.4Y-3.8
X1.4042Y-3.4547
X1.4601Y-2.5115
X1.5Y-3.4409
X1.5Y-3.795
X1.5285Y-2.5115
X1.5393Y-2.6077
X1.5443Y-4.6
X1.55Y-1.575
X1.575Y-4.9
X1.6Y-1.025
X1.6Y-3.8
X1.6443Y-4.55
X1.65Y-0.9965
X1.687Y-1.698
X1.7Y-1.48
X1.7Y-3.5
X1.7Y-3.8
X1.7Y-4.925
X1.77Y-2.9
X1.8Y-1.14
X1.8Y-3.525
X1.8Y-3.8
X1.8Y-4.95
X1.85Y-1.575
X1.86Y-1.2
X1.86Y-2.56
X1.8878Y-1.2285
X1.9Y-3.0213
X1.9Y-3.6
X1.9Y-4.95
X1.95Y-1.075
X2.0Y-0.9965
X2.0Y-2.94
X2.0Y-3.0
X2.0Y-3.6
X2.0Y-5.0
X2.0004Y-1.6362
X2.02Y-1.68
X2.05Y-1.0535
X2.1Y-0.9965
X2.1Y-2.9063
X2.1Y-3.8
X2.1Y-5.0
X2.105Y-3.2
X2.12Y-1.6035
X2.1252Y-1.72
X2.1252Y-2.96
X2.2Y-1.6035
X2.2Y-1.76
X2.2Y-2.88
X2.2Y-5.025
X2.24Y-2.9
X2.24Y-2.96
X2.245Y-2.3
X2.25Y-3.5
X2.26Y-3.64
X2.265Y-5.285
X2.3Y-1.0535
X2.3Y-2.86
X2.3157Y-1.6885
X2.32Y-3.0
X2.36Y-2.52
X2.36Y-3.89
X2.38Y-3.6885
X2.3929Y-4.73
X2.4Y-1.075
X2.4Y-2.0
X2.4Y-2.3
X2.4Y-2.64
X2.4Y-3.1365
X2.42Y-2.58
X2.4215Y-4.775
X2.425Y-0.9965
X2.45Y-4.825
X2.5Y-1.62
X2.5Y-1.8
X2.55Y-4.85
X2.58Y-2.58
X2.58Y-3.74
X2.6Y-1.8
X2.6Y-3.0
X2.6Y-3.35
X2.6Y-3.7
X2.6Y-3.8
X2.62Y-1.62
X2.64Y-2.64
X2.65Y-3.05
X2.65Y-4.65
X2.66Y-1.6035
X2.7187Y-1.6902
X2.75Y-3.7
X2.76Y-1.7315
X2.79Y-2.37
X2.8Y-1.62
X2.835Y-2.02
X2.835Y-3.2
X2.85Y-3.45
X2.86Y-1.62
X2.9Y-3.45
X2.9Y-3.7
X2.9Y-5.025
X2.92Y-1.66
X2.9537Y-0.9787
X3.0Y-1.0685
X3.0Y-1.8
X3.0Y-2.1
X3.0Y-1.62
X3.03Y-3.9
X3.04Y-3.1
X3.06Y-1.12
X3.075Y-3.175
X3.1Y-3.8
X3.1Y-4.4551
X3.12Y-1.1085
X3.12Y-2.6
X3.175Y-4.775
X3.18Y-1.6
X3.2Y-3.0
X3.2Y-3.15
X3.2Y-3.7
X3.2085Y-1.78
X3.28Y-1.66
X3.3Y-2.54
X3.3Y-4.5
X3.3Y-4.8894
X3.31Y-5.54
X3.4Y-3.45
X3.4Y-3.7
X3.4Y-4.9179
X3.4785Y-2.5
X3.48Y-2.8
X3.4823Y-4.8321
X3.5Y-4.775
X3.5Y-4.9465
X3.54Y-2.58
X3.55Y-3.2285
X3.56Y-1.14
X3.56Y-1.68
X3.56Y-1.78
X3.56Y-2.16
X3.56Y-2.62
X3.58Y-3.31
X3.6Y-1.8
X3.6Y-3.36
X3.6177Y-3.2285
X3.64Y-1.08
X3.65Y-5.47
X3.7Y-1.0073
X3.7Y-1.7
X3.7831Y-1.6515
X3.8Y-2.65
X3.8Y-3.1
X3.82Y-1.72
X3.84Y-1.0073
X3.85Y-3.5378
X3.85Y-5.25
X3.8963Y-0.9787
X3.9Y-1.6
X3.9Y-1.7115
X3.9Y-2.6016
X3.9Y-3.08
X3.9Y-4.95
X3.95Y-0.975
X3.95Y-3.925
X4.0Y-1.0685
X4.0Y-1.7
X4.0Y-2.5731
X4.0Y-3.0785
X4.0Y-3.6
X4.0004Y-1.6606
X4.04Y-1.04
X4.05Y-3.875
X4.0874Y-2.5517
X4.1Y-0.8874
X4.1Y-1.65
X4.1Y-3.36
X4.1Y-5.2606
X4.1267Y-2.5499
X4.1285Y-1.6
X4.14Y-1.76
X4.15Y-3.2
X4.15Y-3.825
X4.15Y-4.835
X4.15Y-5.34
X4.2Y-5.57
X4.22Y-1.18
X4.22Y-4.81
X4.225Y-3.775
X4.29Y-1.98
X4.32Y-1.06
X4.34Y-3.2272
X4.345Y-5.57
X4.3485Y-1.2
X4.36Y-1.78
X4.395Y-4.88
X4.4285Y-3.18
X4.4471Y-2.5035
X4.475Y-2.475
X4.5142Y-2.471
X4.52Y-1.08
X4.58Y-1.38
X4.5956Y-3.7
X4.66Y-2.92
X4.68Y-3.0
X4.7Y-1.56
T2
X1.1Y-3.025
X1.2Y-1.3953
X1.4Y-4.5
X1.4Y-5.2
X1.4016Y-3.4016
X1.8016Y-2.2016
X2.2Y-3.4
X2.3Y-3.5
X2.3Y-5.2
X2.6Y-2.2016
X2.7Y-2.3
X2.7Y-3.4016
X2.8Y-4.5
X2.8Y-5.2
X3.2Y-4.5
X3.3Y-2.2
X3.3Y-3.5
X3.3Y-5.2
X3.4Y-4.6
X3.4Y-5.3
X3.7Y-3.4
X4.0Y-4.5016
X4.0Y-5.2
X4.2Y-2.3
X4.3Y-4.5
X4.4Y-5.2
X4.5Y-5.2
X4.6Y-3.5
X4.6Y-4.6
X4.6Y-5.3
X4.75Y-2.2
X4.8551Y-2.3
T3
X1.2016Y-1.9
X1.3Y-1.9
X1.4Y-3.1
X1.4Y-3.3
X1.4Y-3.6
X1.4Y-4.4
X1.4Y-4.7
X1.4Y-5.1
X1.4Y-5.4
X1.5Y-3.1
X1.5Y-3.3
X1.5Y-3.6
X1.5Y-4.4
X1.5Y-4.7
X1.5Y-5.1
X1.5Y-5.4
X1.6Y-3.1
X1.6Y-3.3
X1.6Y-3.6
X1.6Y-4.4
X1.6Y-4.7
X1.6Y-5.1
X1.6Y-5.4
X1.7Y-3.1
X1.7Y-3.3
X1.7Y-3.6
X1.7Y-4.4
X1.7Y-4.7
X1.7Y-5.1
X1.7Y-5.4
X1.8Y-1.9
X1.8Y-2.1
X1.8Y-2.4
X1.8Y-3.1
X1.8Y-3.3
X1.8Y-3.6
X1.8Y-4.4
X1.8Y-4.7
X1.8Y-5.1
X1.8Y-5.4
X1.9Y-1.9
X1.9Y-2.1
X1.9Y-2.4
X1.9Y-3.1
X1.9Y-3.3
X1.9Y-3.6
X1.9Y-4.4
X1.9Y-4.7
X1.9Y-5.1
X1.9Y-5.4
X2.0Y-1.9
X2.0Y-2.1
X2.0Y-2.4
X2.0Y-3.1
X2.0Y-3.3
X2.0Y-3.6
X2.0Y-4.4
X2.0Y-4.7
X2.0Y-5.1
X2.0Y-5.4
X2.1Y-1.9
X2.1Y-2.1
X2.1Y-2.4
X2.1Y-3.1
X2.1Y-3.3
X2.1Y-3.6
X2.1Y-4.4
X2.1Y-4.7
X2.1Y-5.1
X2.1Y-5.4
X2.2Y-1.9
X2.2Y-2.1
X2.2Y-2.4
X2.2Y-3.1
X2.2Y-3.3
X2.2Y-3.6
X2.2Y-4.4
X2.2Y-4.7
X2.2Y-5.1
X2.2Y-5.4
X2.3Y-1.9
X2.3Y-2.1
X2.3Y-2.4
X2.3Y-3.1
X2.3Y-3.3
X2.3Y-3.6
X2.3Y-4.4
X2.3Y-4.7
X2.3Y-5.1
X2.3Y-5.4
X2.4Y-1.9
X2.4Y-2.1
X2.4Y-2.4
X2.5Y-1.9
X2.5Y-2.1
X2.5Y-2.4
X2.5Y-3.4016
X2.5Y-3.5
X2.5Y-4.5016
X2.5Y-4.6
X2.5Y-5.2016
X2.5Y-5.3
X2.6Y-1.9
X2.6Y-2.1
X2.6Y-2.4
X2.7Y-1.9
X2.7Y-2.1
X2.7Y-2.4
X2.7Y-3.3
X2.7Y-3.6
X2.8Y-3.3
X2.8Y-3.6
X2.8Y-4.4
X2.8Y-4.7
X2.8Y-5.1
X2.8Y-5.4
X2.9Y-2.2016
X2.9Y-2.3
X2.9Y-3.3
X2.9Y-3.6
X2.9Y-4.4
X2.9Y-4.7
X2.9Y-5.1
X2.9Y-5.4
X3.0Y-3.3
X3.0Y-3.6
X3.0Y-4.4
X3.0Y-4.7
X3.0Y-5.1
X3.0Y-5.4
X3.1Y-3.3
X3.1Y-3.6
X3.1Y-4.4
X3.1Y-4.7
X3.1Y-5.1
X3.1Y-5.4
X3.2Y-3.3
X3.2Y-3.6
X3.2Y-4.4
X3.2Y-4.7
X3.2Y-5.1
X3.2Y-5.4
X3.3Y-1.9
X3.3Y-2.1
X3.3Y-2.4
X3.3Y-3.3
X3.3Y-3.6
X3.3Y-4.4
X3.3Y-4.7
X3.3Y-5.1
X3.3Y-5.4
X3.4Y-1.9
X3.4Y-2.1
X3.4Y-2.4
X3.4Y-4.4
X3.4Y-4.7
X3.4Y-5.1
X3.4Y-5.4
X3.5Y-1.9
X3.5Y-2.1
X3.5Y-2.4
X3.5Y-3.4016
X3.5Y-3.5
X3.6Y-1.9
X3.6Y-2.1
X3.6Y-2.4
X3.6Y-4.5016
X3.6Y-4.6
X3.6Y-5.2016
X3.6Y-5.3
X3.7Y-1.9
X3.7Y-2.1
X3.7Y-2.4
X3.7Y-3.3
X3.7Y-3.6
X3.8Y-1.9
X3.8Y-2.1
X3.8Y-2.4
X3.8Y-3.3
X3.8Y-3.6
X3.9Y-1.9
X3.9Y-2.1
X3.9Y-2.4
X3.9Y-3.3
X3.9Y-3.6
X4.0Y-1.9
X4.0Y-2.1
X4.0Y-2.4
X4.0Y-3.3
X4.0Y-3.6
X4.0Y-4.4
X4.0Y-4.7
X4.0Y-5.1
X4.0Y-5.4
X4.1Y-1.9
X4.1Y-2.1
X4.1Y-2.4
X4.1Y-3.3
X4.1Y-3.6
X4.1Y-4.4
X4.1Y-4.7
X4.1Y-5.1
X4.1Y-5.4
X4.2Y-1.9
X4.2Y-2.1
X4.2Y-2.4
X4.2Y-3.3
X4.2Y-3.6
X4.2Y-4.4
X4.2Y-4.7
X4.2Y-5.1
X4.2Y-5.4
X4.3Y-3.3
X4.3Y-3.6
X4.3Y-4.4
X4.3Y-4.7
X4.3Y-5.1
X4.3Y-5.4
X4.4Y-2.2016
X4.4Y-2.3
X4.4Y-3.3
X4.4Y-3.6
X4.4Y-4.4
X4.4Y-4.7
X4.4Y-5.1
X4.4Y-5.4
X4.5Y-3.3
X4.5Y-3.6
X4.5Y-4.4
X4.5Y-4.7
X4.5Y-5.1
X4.5Y-5.4
X4.6Y-3.3
X4.6Y-3.6
X4.6Y-4.4
X4.6Y-4.7
X4.6Y-5.1
X4.6Y-5.4
X4.8Y-3.4
X4.8Y-3.4984
X4.8Y-4.5016
X4.8Y-4.6
X4.8Y-5.2016
X4.8Y-5.3
T4
X1.17Y-3.9
X1.17Y-4.0
X1.17Y-4.1
X1.17Y-4.2
X1.17Y-4.3
X1.17Y-4.4
X1.17Y-4.5
X1.17Y-4.6
X1.17Y-4.84
X1.17Y-4.94
X1.17Y-5.04
X1.17Y-5.14
X1.17Y-5.24
X1.17Y-5.34
X1.17Y-5.44
X1.17Y-5.54
X1.8Y-0.7874
X1.8Y-0.8874
X1.8Y-1.378
X1.8Y-1.478
X1.9Y-0.7874
X1.9Y-0.8874
X1.9Y-1.378
X1.9Y-1.478
X2.0Y-0.7874
X2.0Y-0.8874
X2.0Y-1.378
X2.0Y-1.478
X2.1Y-0.7874
X2.1Y-0.8874
X2.1Y-1.378
X2.1Y-1.478
X2.2Y-0.7874
X2.2Y-0.8874
X2.2Y-1.378
X2.2Y-1.478
X2.3Y-0.7874
X2.3Y-0.8874
X2.3Y-1.378
X2.3Y-1.478
X2.4Y-0.7874
X2.4Y-0.8874
X2.4Y-1.378
X2.4Y-1.478
X2.5Y-0.7874
X2.5Y-0.8874
X2.5Y-1.378
X2.5Y-1.478
X2.6Y-0.7874
X2.6Y-0.8874
X2.6Y-1.378
X2.6Y-1.478
X2.7Y-0.7874
X2.7Y-0.8874
X2.7Y-1.378
X2.7Y-1.478
X2.8Y-0.7874
X2.8Y-0.8874
X2.8Y-1.378
X2.8Y-1.478
X2.9Y-0.7874
X2.9Y-0.8874
X2.9Y-1.378
X2.9Y-1.478
X3.0Y-0.7874
X3.0Y-0.8874
X3.0Y-1.378
X3.0Y-1.478
X3.1Y-0.7874
X3.1Y-0.8874
X3.1Y-1.378
X3.1Y-1.478
X3.2Y-0.7874
X3.2Y-0.8874
X3.2Y-1.378
X3.2Y-1.478
X3.3Y-0.7874
X3.3Y-0.8874
X3.3Y-1.378
X3.3Y-1.478
X3.4Y-0.7874
X3.4Y-0.8874
X3.4Y-1.378
X3.4Y-1.478
X3.5Y-0.7874
X3.5Y-0.8874
X3.5Y-1.378
X3.5Y-1.478
X3.6Y-0.7874
X3.6Y-0.8874
X3.6Y-1.378
X3.6Y-1.478
X3.7Y-0.7874
X3.7Y-0.8874
X3.7Y-1.378
X3.7Y-1.478
X3.8Y-0.7874
X3.8Y-0.8874
X3.8Y-1.378
X3.8Y-1.478
X3.9Y-0.7874
X3.9Y-0.8874
X3.9Y-1.378
X3.9Y-1.478
X4.0Y-0.7874
X4.0Y-0.8874
X4.0Y-1.378
X4.0Y-1.478
X4.1Y-0.7874
X4.1Y-0.8874
X4.1Y-1.378
X4.1Y-1.478
X4.2Y-0.7874
X4.2Y-0.8874
X4.2Y-1.378
X4.2Y-1.478
X4.81Y-2.49
X4.81Y-2.59
X4.81Y-2.69
X4.81Y-2.79
X4.81Y-2.89
X4.81Y-2.99
X4.81Y-3.09
X4.81Y-3.19
X4.81Y-3.66
X4.81Y-3.76
X4.81Y-3.86
X4.81Y-3.96
X4.81Y-4.06
X4.81Y-4.16
X4.81Y-4.26
X4.81Y-4.36
X4.855Y-1.335
X4.855Y-1.435
T5
X4.855Y-1.685
X4.855Y-2.085
T4
G00X1.1811Y-2.3606
M15
G01X1.1811Y-2.4394
M16
G05
G00X1.2598Y-2.585
M15
G01X1.3386Y-2.585
M16
G05
G00X1.4173Y-2.3606
M15
G01X1.4173Y-2.4394
M16
G05
T0
M30
